<svg width="431" height="337" viewBox="0 0 431 337" fill="none" xmlns="http://www.w3.org/2000/svg">
<ellipse cx="210.317" cy="117.738" rx="118.121" ry="117.738" fill="#FFA432"/>
<ellipse cx="210.317" cy="117.738" rx="118.121" ry="117.738" fill="url(#paint0_radial)"/>
<path fill-rule="evenodd" clip-rule="evenodd" d="M317.499 234.835C369.004 234.835 410.757 224.231 410.757 211.151L410.757 243.717C410.757 256.798 369.004 267.402 317.499 267.402C265.993 267.402 224.24 256.798 224.24 243.717L224.24 243.684V211.176C224.293 224.245 266.026 234.835 317.499 234.835Z" fill="#C4C4C4"/>
<path fill-rule="evenodd" clip-rule="evenodd" d="M317.499 234.835C369.004 234.835 410.757 224.231 410.757 211.151L410.757 243.717C410.757 256.798 369.004 267.402 317.499 267.402C265.993 267.402 224.24 256.798 224.24 243.717L224.24 243.684V211.176C224.293 224.245 266.026 234.835 317.499 234.835Z" fill="url(#paint1_linear)"/>
<ellipse cx="317.499" cy="211.151" rx="93.2585" ry="23.6847" fill="#6B51D9"/>
<ellipse cx="317.499" cy="211.151" rx="93.2585" ry="23.6847" fill="url(#paint2_linear)"/>
<path fill-rule="evenodd" clip-rule="evenodd" d="M210.876 201.837H210.876V234.404L210.876 234.404C210.876 247.484 169.122 258.088 117.617 258.088C66.1118 258.088 24.3585 247.484 24.3585 234.404C24.3585 234.379 24.3586 234.355 24.3589 234.331V201.91C24.5128 214.957 66.2069 225.522 117.617 225.522C169.122 225.522 210.876 214.918 210.876 201.837C210.876 201.837 210.876 201.837 210.876 201.837Z" fill="#C4C4C4"/>
<path fill-rule="evenodd" clip-rule="evenodd" d="M210.876 201.837H210.876V234.404L210.876 234.404C210.876 247.484 169.122 258.088 117.617 258.088C66.1118 258.088 24.3585 247.484 24.3585 234.404C24.3585 234.379 24.3586 234.355 24.3589 234.331V201.91C24.5128 214.957 66.2069 225.522 117.617 225.522C169.122 225.522 210.876 214.918 210.876 201.837C210.876 201.837 210.876 201.837 210.876 201.837Z" fill="url(#paint3_linear)"/>
<ellipse rx="93.2585" ry="23.6847" transform="matrix(-1 0 0 1 117.617 201.837)" fill="#6B51D9"/>
<ellipse rx="93.2585" ry="23.6847" transform="matrix(-1 0 0 1 117.617 201.837)" fill="url(#paint4_linear)"/>
<path fill-rule="evenodd" clip-rule="evenodd" d="M306.753 201.88C358.258 201.88 400.011 191.276 400.011 178.195L400.011 178.195V210.762L400.011 210.762C400.011 223.842 358.258 234.446 306.753 234.446C255.247 234.446 213.494 223.842 213.494 210.762L213.494 210.722V178.235C213.579 191.297 255.3 201.88 306.753 201.88Z" fill="#C4C4C4"/>
<path fill-rule="evenodd" clip-rule="evenodd" d="M306.753 201.88C358.258 201.88 400.011 191.276 400.011 178.195L400.011 178.195V210.762L400.011 210.762C400.011 223.842 358.258 234.446 306.753 234.446C255.247 234.446 213.494 223.842 213.494 210.762L213.494 210.722V178.235C213.579 191.297 255.3 201.88 306.753 201.88Z" fill="url(#paint5_linear)"/>
<ellipse cx="306.756" cy="178.195" rx="93.2585" ry="23.6847" fill="#6B51D9"/>
<ellipse cx="306.756" cy="178.195" rx="93.2585" ry="23.6847" fill="url(#paint6_linear)"/>
<path fill-rule="evenodd" clip-rule="evenodd" d="M93.26 192.566C41.7547 192.566 0.00143433 181.962 0.00143433 168.882L0.00012207 168.882V201.448L0.00151062 201.448C0.00151062 214.529 41.7548 225.133 93.26 225.133C144.765 225.133 186.519 214.529 186.519 201.448C186.519 201.404 186.518 201.361 186.517 201.317V169.009C186.248 182.031 144.598 192.566 93.26 192.566Z" fill="#C4C4C4"/>
<path fill-rule="evenodd" clip-rule="evenodd" d="M93.26 192.566C41.7547 192.566 0.00143433 181.962 0.00143433 168.882L0.00012207 168.882V201.448L0.00151062 201.448C0.00151062 214.529 41.7548 225.133 93.26 225.133C144.765 225.133 186.519 214.529 186.519 201.448C186.519 201.404 186.518 201.361 186.517 201.317V169.009C186.248 182.031 144.598 192.566 93.26 192.566Z" fill="url(#paint7_linear)"/>
<ellipse rx="93.2585" ry="23.6847" transform="matrix(-1 0 0 1 93.2591 168.882)" fill="#6B51D9"/>
<ellipse rx="93.2585" ry="23.6847" transform="matrix(-1 0 0 1 93.2591 168.882)" fill="url(#paint8_linear)"/>
<path fill-rule="evenodd" clip-rule="evenodd" d="M235.111 303.612C183.605 303.612 141.852 293.008 141.852 279.927L141.852 279.927V312.494H141.852C141.852 325.575 183.605 336.179 235.111 336.179C286.616 336.179 328.369 325.575 328.369 312.494C328.369 312.468 328.369 312.441 328.369 312.415V280.006C328.201 293.051 286.512 303.612 235.111 303.612Z" fill="#C4C4C4"/>
<path fill-rule="evenodd" clip-rule="evenodd" d="M235.111 303.612C183.605 303.612 141.852 293.008 141.852 279.927L141.852 279.927V312.494H141.852C141.852 325.575 183.605 336.179 235.111 336.179C286.616 336.179 328.369 325.575 328.369 312.494C328.369 312.468 328.369 312.441 328.369 312.415V280.006C328.201 293.051 286.512 303.612 235.111 303.612Z" fill="url(#paint9_linear)"/>
<ellipse rx="93.2585" ry="23.6847" transform="matrix(-1 0 0 1 235.11 279.927)" fill="#6B51D9"/>
<ellipse rx="93.2585" ry="23.6847" transform="matrix(-1 0 0 1 235.11 279.927)" fill="url(#paint10_linear)"/>
<path fill-rule="evenodd" clip-rule="evenodd" d="M294.695 246.972H294.696V279.538L294.695 279.538C294.695 292.619 252.942 303.223 201.436 303.223C149.931 303.223 108.178 292.619 108.178 279.538C108.178 279.496 108.178 279.454 108.179 279.412V247.098C108.447 260.121 150.097 270.657 201.436 270.657C252.942 270.657 294.695 260.053 294.695 246.972C294.695 246.972 294.695 246.972 294.695 246.972Z" fill="#C4C4C4"/>
<path fill-rule="evenodd" clip-rule="evenodd" d="M294.695 246.972H294.696V279.538L294.695 279.538C294.695 292.619 252.942 303.223 201.436 303.223C149.931 303.223 108.178 292.619 108.178 279.538C108.178 279.496 108.178 279.454 108.179 279.412V247.098C108.447 260.121 150.097 270.657 201.436 270.657C252.942 270.657 294.695 260.053 294.695 246.972C294.695 246.972 294.695 246.972 294.695 246.972Z" fill="url(#paint11_linear)"/>
<ellipse rx="93.2585" ry="23.6847" transform="matrix(-1 0 0 1 201.437 246.972)" fill="#6B51D9"/>
<ellipse rx="93.2585" ry="23.6847" transform="matrix(-1 0 0 1 201.437 246.972)" fill="url(#paint12_linear)"/>
<path fill-rule="evenodd" clip-rule="evenodd" d="M336.843 168.924C388.348 168.924 430.101 158.32 430.101 145.24L430.102 145.24V177.806L430.101 177.806C430.101 190.887 388.348 201.491 336.843 201.491C285.337 201.491 243.584 190.887 243.584 177.806C243.584 177.767 243.584 177.728 243.585 177.69V145.356C243.832 158.383 285.49 168.924 336.843 168.924Z" fill="#C4C4C4"/>
<path fill-rule="evenodd" clip-rule="evenodd" d="M336.843 168.924C388.348 168.924 430.101 158.32 430.101 145.24L430.102 145.24V177.806L430.101 177.806C430.101 190.887 388.348 201.491 336.843 201.491C285.337 201.491 243.584 190.887 243.584 177.806C243.584 177.767 243.584 177.728 243.585 177.69V145.356C243.832 158.383 285.49 168.924 336.843 168.924Z" fill="url(#paint13_linear)"/>
<ellipse cx="336.844" cy="145.24" rx="93.2585" ry="23.6847" fill="#6B51D9"/>
<ellipse cx="336.844" cy="145.24" rx="93.2585" ry="23.6847" fill="url(#paint14_linear)"/>
<path fill-rule="evenodd" clip-rule="evenodd" d="M213.74 135.926H213.74V168.493L213.74 168.493C213.74 181.573 171.987 192.177 120.481 192.177C68.976 192.177 27.2228 181.573 27.2228 168.493C27.2228 168.469 27.2229 168.445 27.2232 168.421V135.997C27.3743 149.045 69.0695 159.611 120.481 159.611C171.987 159.611 213.74 149.007 213.74 135.926C213.74 135.926 213.74 135.926 213.74 135.926Z" fill="#C4C4C4"/>
<path fill-rule="evenodd" clip-rule="evenodd" d="M213.74 135.926H213.74V168.493L213.74 168.493C213.74 181.573 171.987 192.177 120.481 192.177C68.976 192.177 27.2228 181.573 27.2228 168.493C27.2228 168.469 27.2229 168.445 27.2232 168.421V135.997C27.3743 149.045 69.0695 159.611 120.481 159.611C171.987 159.611 213.74 149.007 213.74 135.926C213.74 135.926 213.74 135.926 213.74 135.926Z" fill="url(#paint15_linear)"/>
<ellipse rx="93.2585" ry="23.6847" transform="matrix(-1 0 0 1 120.482 135.926)" fill="#6B51D9"/>
<ellipse rx="93.2585" ry="23.6847" transform="matrix(-1 0 0 1 120.482 135.926)" fill="url(#paint16_linear)"/>
<path d="M44.8033 135.883C44.8033 138.338 46.7648 140.783 50.5854 143.084C54.3825 145.371 59.9023 147.444 66.757 149.19C80.4606 152.68 99.4126 154.843 120.361 154.843C141.309 154.843 160.261 152.68 173.964 149.19C180.819 147.444 186.339 145.371 190.136 143.084C193.957 140.783 195.918 138.338 195.918 135.883C195.918 133.428 193.957 130.983 190.136 128.683C186.339 126.396 180.819 124.323 173.964 122.577C160.261 119.087 141.309 116.923 120.361 116.923C99.4126 116.923 80.4606 119.087 66.757 122.577C59.9023 124.323 54.3825 126.396 50.5854 128.683C46.7648 130.983 44.8033 133.428 44.8033 135.883Z" stroke="#583DC7" stroke-width="0.767023"/>
<path d="M44.469 135.883C44.469 138.123 46.267 140.468 50.0655 142.756C53.8167 145.015 59.2958 147.076 66.1339 148.818C79.7985 152.299 98.7172 154.46 119.643 154.46C140.569 154.46 159.487 152.299 173.152 148.818C179.99 147.076 185.469 145.015 189.22 142.756C193.019 140.468 194.817 138.123 194.817 135.883C194.817 133.644 193.019 131.299 189.22 129.011C185.469 126.752 179.99 124.691 173.152 122.949C159.487 119.468 140.569 117.307 119.643 117.307C98.7172 117.307 79.7985 119.468 66.1339 122.949C59.2958 124.691 53.8167 126.752 50.0655 129.011C46.267 131.299 44.469 133.644 44.469 135.883Z" stroke="#583DC7" stroke-width="1.53405"/>
<path d="M261.163 145.197C261.163 147.652 263.124 150.097 266.945 152.398C270.742 154.684 276.262 156.757 283.116 158.503C296.82 161.994 315.772 164.157 336.72 164.157C357.668 164.157 376.62 161.994 390.324 158.503C397.179 156.757 402.698 154.684 406.495 152.398C410.316 150.097 412.278 147.652 412.278 145.197C412.278 142.742 410.316 140.297 406.495 137.996C402.698 135.709 397.179 133.637 390.324 131.891C376.62 128.4 357.668 126.237 336.72 126.237C315.772 126.237 296.82 128.4 283.116 131.891C276.262 133.637 270.742 135.709 266.945 137.996C263.124 140.297 261.163 142.742 261.163 145.197Z" stroke="#583DC7" stroke-width="0.767023"/>
<path d="M260.83 145.197C260.83 147.436 262.628 149.782 266.427 152.069C270.178 154.328 275.657 156.39 282.495 158.131C296.16 161.612 315.078 163.773 336.004 163.773C356.93 163.773 375.849 161.612 389.513 158.131C396.352 156.39 401.831 154.328 405.582 152.069C409.38 149.782 411.178 147.436 411.178 145.197C411.178 142.958 409.38 140.612 405.582 138.325C401.831 136.066 396.352 134.004 389.513 132.262C375.849 128.782 356.93 126.62 336.004 126.62C315.078 126.62 296.16 128.782 282.495 132.262C275.657 134.004 270.178 136.066 266.427 138.325C262.628 140.612 260.83 142.958 260.83 145.197Z" stroke="#583DC7" stroke-width="1.53405"/>
<path d="M125.758 246.929C125.758 249.384 127.72 251.829 131.541 254.13C135.338 256.417 140.857 258.489 147.712 260.235C161.416 263.726 180.368 265.889 201.316 265.889C222.264 265.889 241.216 263.726 254.92 260.235C261.774 258.489 267.294 256.417 271.091 254.13C274.912 251.829 276.873 249.384 276.873 246.929C276.873 244.474 274.912 242.029 271.091 239.728C267.294 237.442 261.774 235.369 254.92 233.623C241.216 230.132 222.264 227.969 201.316 227.969C180.368 227.969 161.416 230.132 147.712 233.623C140.857 235.369 135.338 237.442 131.541 239.728C127.72 242.029 125.758 244.474 125.758 246.929Z" stroke="#583DC7" stroke-width="0.767023"/>
<path d="M125.426 246.929C125.426 249.168 127.224 251.514 131.023 253.801C134.774 256.06 140.253 258.122 147.091 259.864C160.756 263.344 179.674 265.506 200.6 265.506C221.526 265.506 240.445 263.344 254.109 259.864C260.947 258.122 266.426 256.06 270.177 253.801C273.976 251.514 275.774 249.168 275.774 246.929C275.774 244.69 273.976 242.344 270.177 240.057C266.426 237.798 260.947 235.736 254.109 233.995C240.445 230.514 221.526 228.353 200.6 228.353C179.674 228.353 160.756 230.514 147.091 233.995C140.253 235.736 134.774 237.798 131.023 240.057C127.224 242.344 125.426 244.69 125.426 246.929Z" stroke="#583DC7" stroke-width="1.53405"/>
<path d="M308.773 234.828C304.139 238.528 297.037 275.569 297.817 278.512C298.596 281.455 300.045 285.239 312.52 285.239C321.475 285.239 321.876 282.716 323.658 279.773C325.44 276.83 313.406 231.129 308.773 234.828Z" fill="#3F5807"/>
<path d="M308.773 234.828C304.139 238.528 297.037 275.569 297.817 278.512C298.596 281.455 300.045 285.239 312.52 285.239C321.475 285.239 321.876 282.716 323.658 279.773C325.44 276.83 313.406 231.129 308.773 234.828Z" fill="url(#paint17_radial)"/>
<path d="M199.208 203.367C194.847 206.843 188.163 241.639 188.896 244.404C189.63 247.168 190.993 250.723 202.734 250.723C211.163 250.723 211.54 248.353 213.217 245.589C214.895 242.824 203.569 199.892 199.208 203.367Z" fill="#3F5807"/>
<path d="M199.208 203.367C194.847 206.843 188.163 241.639 188.896 244.404C189.63 247.168 190.993 250.723 202.734 250.723C211.163 250.723 211.54 248.353 213.217 245.589C214.895 242.824 203.569 199.892 199.208 203.367Z" fill="url(#paint18_radial)"/>
<path d="M156.869 191.166C151.281 195.875 142.717 243.018 143.657 246.764C144.597 250.509 146.343 255.325 161.387 255.325C172.186 255.325 172.67 252.114 174.819 248.369C176.967 244.623 162.456 186.457 156.869 191.166Z" fill="#3F5807"/>
<path d="M156.869 191.166C151.281 195.875 142.717 243.018 143.657 246.764C144.597 250.509 146.343 255.325 161.387 255.325C172.186 255.325 172.67 252.114 174.819 248.369C176.967 244.623 162.456 186.457 156.869 191.166Z" fill="url(#paint19_radial)"/>
<path d="M182.724 231.683C180.134 234.037 176.166 257.609 176.601 259.482C177.037 261.354 177.846 263.762 184.818 263.762C189.822 263.762 190.046 262.157 191.042 260.284C192.038 258.411 185.313 229.328 182.724 231.683Z" fill="#3F5807"/>
<path d="M182.724 231.683C180.134 234.037 176.166 257.609 176.601 259.482C177.037 261.354 177.846 263.762 184.818 263.762C189.822 263.762 190.046 262.157 191.042 260.284C192.038 258.411 185.313 229.328 182.724 231.683Z" fill="url(#paint20_radial)"/>
<path d="M231.899 149.624C228.629 152.203 223.616 178.019 224.166 180.071C224.716 182.122 225.738 184.759 234.544 184.759C240.865 184.759 241.149 183.001 242.407 180.95C243.664 178.899 235.17 147.046 231.899 149.624Z" fill="#3F5807"/>
<path d="M231.899 149.624C228.629 152.203 223.616 178.019 224.166 180.071C224.716 182.122 225.738 184.759 234.544 184.759C240.865 184.759 241.149 183.001 242.407 180.95C243.664 178.899 235.17 147.046 231.899 149.624Z" fill="url(#paint21_radial)"/>
<path d="M250.889 179.495C248.981 180.914 246.07 191.02 246.391 192.149C246.712 193.278 247.308 194.73 252.445 194.73C256.132 194.73 256.297 193.762 257.031 192.633C257.765 191.504 252.797 178.075 250.889 179.495Z" fill="#3F5807"/>
<path d="M250.889 179.495C248.981 180.914 246.07 191.02 246.391 192.149C246.712 193.278 247.308 194.73 252.445 194.73C256.132 194.73 256.297 193.762 257.031 192.633C257.765 191.504 252.797 178.075 250.889 179.495Z" fill="url(#paint22_radial)"/>
<path d="M204.967 224.767C202.378 226.897 198.409 248.224 198.845 249.918C199.28 251.612 200.089 253.791 207.061 253.791C212.065 253.791 212.289 252.339 213.285 250.644C214.281 248.95 207.556 222.637 204.967 224.767Z" fill="#3F5807"/>
<path d="M204.967 224.767C202.378 226.897 198.409 248.224 198.845 249.918C199.28 251.612 200.089 253.791 207.061 253.791C212.065 253.791 212.289 252.339 213.285 250.644C214.281 248.95 207.556 222.637 204.967 224.767Z" fill="url(#paint23_radial)"/>
<path d="M236.21 166.46C234.029 168.366 230.687 187.448 231.054 188.964C231.421 190.48 232.102 192.429 237.973 192.429C242.187 192.429 242.376 191.13 243.215 189.614C244.053 188.098 238.39 164.554 236.21 166.46Z" fill="#3F5807"/>
<path d="M236.21 166.46C234.029 168.366 230.687 187.448 231.054 188.964C231.421 190.48 232.102 192.429 237.973 192.429C242.187 192.429 242.376 191.13 243.215 189.614C244.053 188.098 238.39 164.554 236.21 166.46Z" fill="url(#paint24_radial)"/>
<path d="M166.531 242.376C164.623 243.946 161.698 259.66 162.019 260.908C162.34 262.157 162.937 263.762 168.073 263.762C171.761 263.762 171.926 262.692 172.66 261.444C173.394 260.195 168.439 240.806 166.531 242.376Z" fill="#3F5807"/>
<path d="M166.531 242.376C164.623 243.946 161.698 259.66 162.019 260.908C162.34 262.157 162.937 263.762 168.073 263.762C171.761 263.762 171.926 262.692 172.66 261.444C173.394 260.195 168.439 240.806 166.531 242.376Z" fill="url(#paint25_radial)"/>
<path d="M281.993 120.455C279.267 122.641 275.09 144.529 275.548 146.268C276.007 148.007 276.859 150.243 284.197 150.243C289.465 150.243 289.701 148.752 290.749 147.013C291.797 145.274 284.719 118.269 281.993 120.455Z" fill="#3F5807"/>
<path d="M281.993 120.455C279.267 122.641 275.09 144.529 275.548 146.268C276.007 148.007 276.859 150.243 284.197 150.243C289.465 150.243 289.701 148.752 290.749 147.013C291.797 145.274 284.719 118.269 281.993 120.455Z" fill="url(#paint26_radial)"/>
<path d="M163.02 111.992C160.975 113.73 157.842 131.128 158.186 132.51C158.53 133.892 159.169 135.669 164.673 135.669C168.623 135.669 168.801 134.485 169.587 133.102C170.373 131.72 165.064 110.254 163.02 111.992Z" fill="#3F5807"/>
<path d="M163.02 111.992C160.975 113.73 157.842 131.128 158.186 132.51C158.53 133.892 159.169 135.669 164.673 135.669C168.623 135.669 168.801 134.485 169.587 133.102C170.373 131.72 165.064 110.254 163.02 111.992Z" fill="url(#paint27_radial)"/>
<path d="M297.01 263.875C294.421 265.837 290.452 285.48 290.888 287.041C291.323 288.602 292.132 290.608 299.104 290.608C304.108 290.608 304.332 289.27 305.328 287.71C306.324 286.149 299.599 261.913 297.01 263.875Z" fill="#3F5807"/>
<path d="M297.01 263.875C294.421 265.837 290.452 285.48 290.888 287.041C291.323 288.602 292.132 290.608 299.104 290.608C304.108 290.608 304.332 289.27 305.328 287.71C306.324 286.149 299.599 261.913 297.01 263.875Z" fill="url(#paint28_radial)"/>
<path d="M146.23 114.338C143.505 116.861 139.327 142.116 139.786 144.122C140.244 146.129 141.096 148.709 148.434 148.709C153.702 148.709 153.938 146.989 154.986 144.982C156.035 142.976 148.956 111.815 146.23 114.338Z" fill="#3F5807"/>
<path d="M146.23 114.338C143.505 116.861 139.327 142.116 139.786 144.122C140.244 146.129 141.096 148.709 148.434 148.709C153.702 148.709 153.938 146.989 154.986 144.982C156.035 142.976 148.956 111.815 146.23 114.338Z" fill="url(#paint29_radial)"/>
<defs>
<radialGradient id="paint0_radial" cx="0" cy="0" r="1" gradientUnits="userSpaceOnUse" gradientTransform="translate(194.408 75.3206) rotate(47.6801) scale(98.6507 98.6812)">
<stop offset="0.00667078" stop-color="#F4EAD7"/>
<stop offset="1" stop-color="#FFA21A"/>
</radialGradient>
<linearGradient id="paint1_linear" x1="27.2234" y1="259.108" x2="572.781" y2="260.183" gradientUnits="userSpaceOnUse">
<stop offset="0.3125" stop-color="#FFDFB0"/>
<stop offset="0.348958" stop-color="#FFDFB0"/>
<stop offset="0.450862" stop-color="#583DC7"/>
<stop offset="0.634536" stop-color="#583DC7"/>
<stop offset="0.953125" stop-color="#FFDFB0"/>
</linearGradient>
<linearGradient id="paint2_linear" x1="62.6865" y1="220.421" x2="530.512" y2="211.108" gradientUnits="userSpaceOnUse">
<stop offset="0.272724" stop-color="#FFDFB0"/>
<stop offset="0.528623" stop-color="#DCCCFF"/>
<stop offset="0.871311" stop-color="#7E64EB"/>
</linearGradient>
<linearGradient id="paint3_linear" x1="407.893" y1="249.795" x2="-137.665" y2="250.869" gradientUnits="userSpaceOnUse">
<stop offset="0.3125" stop-color="#FFDFB0"/>
<stop offset="0.348958" stop-color="#FFDFB0"/>
<stop offset="0.450862" stop-color="#583DC7"/>
<stop offset="0.634536" stop-color="#583DC7"/>
<stop offset="0.953125" stop-color="#FFDFB0"/>
</linearGradient>
<linearGradient id="paint4_linear" x1="-161.554" y1="32.9555" x2="306.271" y2="23.642" gradientUnits="userSpaceOnUse">
<stop offset="0.272724" stop-color="#FFDFB0"/>
<stop offset="0.528623" stop-color="#DCCCFF"/>
<stop offset="0.871311" stop-color="#7E64EB"/>
</linearGradient>
<linearGradient id="paint5_linear" x1="16.4773" y1="226.153" x2="562.035" y2="227.227" gradientUnits="userSpaceOnUse">
<stop offset="0.3125" stop-color="#FFDFB0"/>
<stop offset="0.348958" stop-color="#FFDFB0"/>
<stop offset="0.450862" stop-color="#583DC7"/>
<stop offset="0.634536" stop-color="#583DC7"/>
<stop offset="0.953125" stop-color="#FFDFB0"/>
</linearGradient>
<linearGradient id="paint6_linear" x1="51.9434" y1="187.466" x2="519.768" y2="178.152" gradientUnits="userSpaceOnUse">
<stop offset="0.272724" stop-color="#FFDFB0"/>
<stop offset="0.528623" stop-color="#DCCCFF"/>
<stop offset="0.871311" stop-color="#7E64EB"/>
</linearGradient>
<linearGradient id="paint7_linear" x1="383.537" y1="216.839" x2="-162.025" y2="217.914" gradientUnits="userSpaceOnUse">
<stop offset="0.3125" stop-color="#FFDFB0"/>
<stop offset="0.348958" stop-color="#FFDFB0"/>
<stop offset="0.450862" stop-color="#583DC7"/>
<stop offset="0.634536" stop-color="#583DC7"/>
<stop offset="0.953125" stop-color="#FFDFB0"/>
</linearGradient>
<linearGradient id="paint8_linear" x1="-161.554" y1="32.9555" x2="306.271" y2="23.642" gradientUnits="userSpaceOnUse">
<stop offset="0.272724" stop-color="#FFDFB0"/>
<stop offset="0.528623" stop-color="#DCCCFF"/>
<stop offset="0.871311" stop-color="#7E64EB"/>
</linearGradient>
<linearGradient id="paint9_linear" x1="525.386" y1="327.885" x2="-20.1723" y2="328.96" gradientUnits="userSpaceOnUse">
<stop offset="0.103322" stop-color="#FFDFB0"/>
<stop offset="0.184401" stop-color="#FFDFB0"/>
<stop offset="0.449204" stop-color="#583DC7"/>
<stop offset="0.613062" stop-color="#583DC7"/>
<stop offset="0.953125" stop-color="#FFDFB0"/>
</linearGradient>
<linearGradient id="paint10_linear" x1="78.6951" y1="-71.2842" x2="80.8444" y2="221.017" gradientUnits="userSpaceOnUse">
<stop offset="0.0330011" stop-color="#FFDFB0"/>
<stop offset="0.388033" stop-color="#DCCCFF"/>
<stop offset="0.871311" stop-color="#7E64EB"/>
</linearGradient>
<linearGradient id="paint11_linear" x1="491.714" y1="294.93" x2="-53.8466" y2="296.004" gradientUnits="userSpaceOnUse">
<stop offset="0.103322" stop-color="#FFDFB0"/>
<stop offset="0.184401" stop-color="#FFDFB0"/>
<stop offset="0.449204" stop-color="#583DC7"/>
<stop offset="0.613062" stop-color="#583DC7"/>
<stop offset="0.953125" stop-color="#FFDFB0"/>
</linearGradient>
<linearGradient id="paint12_linear" x1="78.6951" y1="-71.2842" x2="80.8444" y2="221.017" gradientUnits="userSpaceOnUse">
<stop offset="0.0330011" stop-color="#FFDFB0"/>
<stop offset="0.388033" stop-color="#DCCCFF"/>
<stop offset="0.871311" stop-color="#7E64EB"/>
</linearGradient>
<linearGradient id="paint13_linear" x1="46.5661" y1="193.197" x2="592.127" y2="194.272" gradientUnits="userSpaceOnUse">
<stop offset="0.3125" stop-color="#FFDFB0"/>
<stop offset="0.348958" stop-color="#FFDFB0"/>
<stop offset="0.450862" stop-color="#583DC7"/>
<stop offset="0.634536" stop-color="#583DC7"/>
<stop offset="0.953125" stop-color="#FFDFB0"/>
</linearGradient>
<linearGradient id="paint14_linear" x1="82.0322" y1="154.51" x2="549.857" y2="145.197" gradientUnits="userSpaceOnUse">
<stop offset="0.272724" stop-color="#FFDFB0"/>
<stop offset="0.528623" stop-color="#DCCCFF"/>
<stop offset="0.871311" stop-color="#7E64EB"/>
</linearGradient>
<linearGradient id="paint15_linear" x1="410.757" y1="183.884" x2="-134.801" y2="184.958" gradientUnits="userSpaceOnUse">
<stop offset="0.3125" stop-color="#FFDFB0"/>
<stop offset="0.348958" stop-color="#FFDFB0"/>
<stop offset="0.450862" stop-color="#583DC7"/>
<stop offset="0.634536" stop-color="#583DC7"/>
<stop offset="0.953125" stop-color="#FFDFB0"/>
</linearGradient>
<linearGradient id="paint16_linear" x1="-161.554" y1="32.9555" x2="306.271" y2="23.642" gradientUnits="userSpaceOnUse">
<stop offset="0.272724" stop-color="#FFDFB0"/>
<stop offset="0.528623" stop-color="#DCCCFF"/>
<stop offset="0.871311" stop-color="#7E64EB"/>
</linearGradient>
<radialGradient id="paint17_radial" cx="0" cy="0" r="1" gradientUnits="userSpaceOnUse" gradientTransform="translate(306.005 279.972) rotate(-87.9101) scale(54.2086 34.8121)">
<stop stop-color="#4E6B12"/>
<stop offset="1" stop-color="#D3E4B0"/>
</radialGradient>
<radialGradient id="paint18_radial" cx="0" cy="0" r="1" gradientUnits="userSpaceOnUse" gradientTransform="translate(196.603 245.775) rotate(-87.9061) scale(50.9233 32.7642)">
<stop stop-color="#4E6B12"/>
<stop offset="1" stop-color="#D3E4B0"/>
</radialGradient>
<radialGradient id="paint19_radial" cx="0" cy="0" r="1" gradientUnits="userSpaceOnUse" gradientTransform="translate(153.531 248.622) rotate(-88.0197) scale(68.9881 41.9821)">
<stop stop-color="#4E6B12"/>
<stop offset="1" stop-color="#D3E4B0"/>
</radialGradient>
<radialGradient id="paint20_radial" cx="0" cy="0" r="1" gradientUnits="userSpaceOnUse" gradientTransform="translate(181.177 260.411) rotate(-97.2135) scale(36.7042 20.7728)">
<stop stop-color="#4E6B12"/>
<stop offset="0.776993" stop-color="#D3E4B0"/>
</radialGradient>
<radialGradient id="paint21_radial" cx="0" cy="0" r="1" gradientUnits="userSpaceOnUse" gradientTransform="translate(229.946 181.088) rotate(-87.8834) scale(37.7824 24.5728)">
<stop stop-color="#4E6B12"/>
<stop offset="1" stop-color="#D3E4B0"/>
</radialGradient>
<radialGradient id="paint22_radial" cx="0" cy="0" r="1" gradientUnits="userSpaceOnUse" gradientTransform="translate(249.762 192.709) rotate(-87.7574) scale(20.8023 14.333)">
<stop stop-color="#4E6B12"/>
<stop offset="1" stop-color="#D3E4B0"/>
</radialGradient>
<radialGradient id="paint23_radial" cx="0" cy="0" r="1" gradientUnits="userSpaceOnUse" gradientTransform="translate(203.42 250.759) rotate(-84.7261) scale(35.2319 21.9617)">
<stop stop-color="#4E6B12"/>
<stop offset="0.739583" stop-color="#D3E4B0"/>
</radialGradient>
<radialGradient id="paint24_radial" cx="0" cy="0" r="1" gradientUnits="userSpaceOnUse" gradientTransform="translate(234.907 189.716) rotate(-85.0347) scale(31.508 18.503)">
<stop stop-color="#4E6B12"/>
<stop offset="0.739583" stop-color="#D3E4B0"/>
</radialGradient>
<radialGradient id="paint25_radial" cx="0" cy="0" r="1" gradientUnits="userSpaceOnUse" gradientTransform="translate(165.391 261.528) rotate(-84.7261) scale(25.9603 16.1823)">
<stop stop-color="#4E6B12"/>
<stop offset="1" stop-color="#D3E4B0"/>
</radialGradient>
<radialGradient id="paint26_radial" cx="0" cy="0" r="1" gradientUnits="userSpaceOnUse" gradientTransform="translate(280.365 147.131) rotate(-84.5916) scale(36.167 23.1125)">
<stop stop-color="#4E6B12"/>
<stop offset="1" stop-color="#D3E4B0"/>
</radialGradient>
<radialGradient id="paint27_radial" cx="0" cy="0" r="1" gradientUnits="userSpaceOnUse" gradientTransform="translate(161.799 133.196) rotate(-84.8953) scale(28.7341 17.3428)">
<stop stop-color="#4E6B12"/>
<stop offset="1" stop-color="#D3E4B0"/>
</radialGradient>
<radialGradient id="paint28_radial" cx="0" cy="0" r="1" gradientUnits="userSpaceOnUse" gradientTransform="translate(295.463 287.815) rotate(-87.7978) scale(28.7491 19.4524)">
<stop stop-color="#4E6B12"/>
<stop offset="1" stop-color="#D3E4B0"/>
</radialGradient>
<radialGradient id="paint29_radial" cx="0" cy="0" r="1" gradientUnits="userSpaceOnUse" gradientTransform="translate(144.602 145.118) rotate(-85.3093) scale(41.6849 23.1381)">
<stop stop-color="#4E6B12"/>
<stop offset="0.739583" stop-color="#D3E4B0"/>
</radialGradient>
</defs>
</svg>
